<svg id="Layer_1" data-name="Layer 1" xmlns="http://www.w3.org/2000/svg" width="462" height="124" viewBox="0 0 462 124"><path d="M148.3,10.4a.7.7,0,0,1,.6-.7h20.6a36.1,36.1,0,1,1,0,72.2H148.9a.7.7,0,0,1-.6-.7Zm21.2,69.7a34.5,34.5,0,0,0,34.7-34.4c0-18.9-15.6-34.1-34.7-34.1H150V80.1Z"/><path d="M237.2,81.1a24.3,24.3,0,0,0,14.1-4.4.5.5,0,0,1,.8.1l.4.6c.2.3,0,.5-.2.7A25.9,25.9,0,0,1,237.2,83c-12.6,0-20.3-9.7-20.3-21.9s7.7-21.5,20.3-21.5c11,0,18.8,7.8,18.8,18.9a10.1,10.1,0,0,1-.4,3.1.8.8,0,0,1-.6.4H218.9C219.2,72.7,226,81.1,237.2,81.1Zm16.9-20.8a12.8,12.8,0,0,0,.1-1.8c0-10.1-7.3-17-17-17s-17.9,8.2-18.3,18.8Z"/><path d="M266.7,77.6l.6-.7q.3-.5.9,0a19.6,19.6,0,0,0,12.5,4.2c7.4,0,13-4.1,13-9.5s-6.2-8-14-10.2S266.1,56,266.1,50.2s4.3-10.6,14-10.6a22.4,22.4,0,0,1,11.7,3.3.5.5,0,0,1,.2.8l-.3.6c-.2.3-.4.5-.9.2a20.1,20.1,0,0,0-10.7-3c-8.5,0-12,4.9-12,8.7s4.1,7.2,12.1,9.4,15.5,4.5,15.5,12S289,83,280.7,83A21,21,0,0,1,267,78.3C266.7,78.1,266.6,77.9,266.7,77.6Z"/><path d="M307.4,17.2a2,2,0,0,1,2.1-2.1,2.1,2.1,0,0,1,2,2.1,2,2,0,0,1-2,2.1A2,2,0,0,1,307.4,17.2Zm1,24.2a.8.8,0,0,1,.7-.8h.5a.8.8,0,0,1,.7.8V81.2a.7.7,0,0,1-.7.7h-.5a.7.7,0,0,1-.7-.7Z"/><path d="M329.4,66.6a16.8,16.8,0,0,1-3.1-10.4c0-9.1,6.6-16.6,17.1-16.6h18.1a.7.7,0,0,1,.7.7v.5a.7.7,0,0,1-.7.7h-9.4c3.9,2,8.2,5.7,8.2,14.7s-6.6,16.7-16.9,16.7c-5.9,0-10.1-1.9-12.8-4.8-1.5.7-6,3.2-6,8.7a6.8,6.8,0,0,0,6.8,7h19c9,0,15.1,3.8,15.1,13.2s-8.2,16.9-20.9,16.9-20.4-9.2-20.4-16.3a14.3,14.3,0,0,1,7-12.1,8.6,8.6,0,0,1-8.4-8.7A11.4,11.4,0,0,1,329.4,66.6ZM344.6,112c11.8,0,19-7.1,19-15s-5.2-11.5-13.2-11.5H335.8c-2,.2-9.7,4.1-9.7,12.1C326.1,103.9,331.6,112,344.6,112Zm13.9-55.8c0-13.9-12-14.7-12-14.7h-3.1c-9.5,0-15.3,6.7-15.3,14.7s4.4,14.9,15.3,14.9C352.7,71.1,358.5,64.2,358.5,56.2Z"/><path d="M374.9,41.4a.8.8,0,0,1,.7-.8h.4a.8.8,0,0,1,.7.8V47c2.6-2.7,8.1-7.4,16.1-7.4,11.2,0,17.2,6.7,17.2,19.2V81.2a.8.8,0,0,1-.8.7h-.4a.7.7,0,0,1-.7-.7V58.8c0-11.2-5.4-17.3-15.3-17.3s-15.2,7.3-16.1,8.4V81.2a.7.7,0,0,1-.7.7h-.4a.7.7,0,0,1-.7-.7Z"/><path d="M423.7,77.6l.5-.7q.3-.5.9,0a19.8,19.8,0,0,0,12.5,4.2c7.4,0,13-4.1,13-9.5s-6.2-8-13.9-10.2S423.1,56,423.1,50.2s4.2-10.6,13.9-10.6a21.7,21.7,0,0,1,11.7,3.3c.4.2.5.5.3.8l-.4.6c-.2.3-.4.5-.9.2a19.8,19.8,0,0,0-10.7-3c-8.5,0-12,4.9-12,8.7s4.1,7.2,12.1,9.4,15.6,4.5,15.6,12S446,83,437.6,83A20.9,20.9,0,0,1,424,78.3C423.7,78.1,423.6,77.9,423.7,77.6Z"/><path d="M12.8,83V65.1H44.2a3.9,3.9,0,0,0,3.2-1.3,4.4,4.4,0,0,0,1.1-3.3c0-1.9-.4-3.2-1.2-4a4.3,4.3,0,0,0-3.1-1.2H13V39H44.2a4.2,4.2,0,0,0,3.2-1.2,4.4,4.4,0,0,0,1.1-3.3,5.4,5.4,0,0,0-1.2-3.8,4.1,4.1,0,0,0-3.1-1.4H12.8V11.4H48.6c5.7,0,10.1,1.5,13,4.6s4.5,7.5,4.5,13.3v8.9a11,11,0,0,1-1.4,5.5,12,12,0,0,1-3.5,3.6,7.6,7.6,0,0,1,3.9,3.6,10.7,10.7,0,0,1,1.4,5.2v9c0,5.8-1.5,10.2-4.6,13.3S54.4,83,48.6,83Z"/><path d="M91.3,56.1V83H73.5V11.4H91.3V38.2h18V11.4h17.9V56.1Zm18,26.9V65.1h17.9V83Z"/><rect x="13.5" y="96.4" width="296.6" height="12.9"/></svg>