<svg id="Layer_1" data-name="Layer 1" xmlns="http://www.w3.org/2000/svg" width="559" height="499" viewBox="0 0 559 499"><rect x="0.3" width="558.7" height="499"/><path d="M78.8,326.1V264.7H186.6c4.8,0,8.4-1.5,11-4.4s3.9-6.8,3.9-11.6-1.4-10.9-4.2-13.6a15,15,0,0,0-10.7-4.1H79.5V174.9H186.6c4.8,0,8.4-1.4,11-4.2s3.9-6.6,3.9-11.4-1.4-10-4.2-13.1a13.9,13.9,0,0,0-10.7-4.6H78.8V79.8H201.9c19.6,0,34.5,5.4,44.7,16s15.3,25.9,15.3,45.8v30.5a36.3,36.3,0,0,1-4.8,18.8,34.7,34.7,0,0,1-11.9,12.4,29,29,0,0,1,13.3,12.4,36.6,36.6,0,0,1,4.8,18.1v30.9q0,29.9-15.8,45.6t-45.6,15.8Z" fill="#fff"/><path d="M348.8,233.8v92.3H287.4V79.8h61.4v92.3h61.7V79.8h61.4v154Zm61.7,92.3V264.7h61.4v61.4Z" fill="#fff"/><rect x="81.1" y="372.3" width="389.4" height="44.36" fill="#fff"/></svg>