<svg id="facebook-icon" xmlns="http://www.w3.org/2000/svg" width="229" height="227" viewBox="0 0 229 227"><path id="icon-bg" d="M223,113.5A108.5,108.5,0,0,1,122.3,221.7q-3.9.3-7.8.3A108.5,108.5,0,1,1,223,113.5Z" fill="#fff"/><g id="facebook"><path d="M156.5,46.4V72.8a1.7,1.7,0,0,1-.1.7h-.1c-.2,0-.3.1-.3.2H137.8c-.3.4-.8.2-1.2.2s-.3.3-.6.3h-.6c-.2.3-.6.1-.8.3h-.2a1.1,1.1,0,0,0-.8.2l-.7.2c-.3.1-.5.3-.8.3s-.4.2-.6.4l-.8.3c-.2.1-.4.3-.6.3s-.5.6-.9.5-.9.6-1.2,1-.8.7-1.1,1.1-.8.7-.9,1.2-.6.8-1,1.1-.8,1.6-1.2,2.4-.2.6-.2.9-.3.5-.2.8-.1.5-.3.7-.1.6-.2.9-.2.5-.2.9-.2.2-.2.4v1.2c0,.4.2.8-.2,1.2s0,.2,0,.3v22.9a.4.4,0,0,0,.1.3h32.4c.2.2.1.4.1.6s0,.4-.2.6,0,.4,0,.5-.3.3-.2.6v1.3c0,.3-.3.5-.2.8v.9c-.1.2-.3.3-.3.6a.7.7,0,0,1-.1.6c-.1.1-.1.5-.1.7v1c-.3.2-.2.6-.2.9s-.2.6-.2.9v.7c0,.2.1.4-.2.6s0,.4,0,.6a1.9,1.9,0,0,0-.3.8,2.7,2.7,0,0,1,0,.9c.1.2-.1.4-.2.7v.6c-.3.2-.2.6-.2.9v1.1c-.4.2-.1.7-.3.9s-.1.6-.1.9a.6.6,0,0,0,0,.6c0,.3-.2.5-.3.8s.1.5-.1.7h-.1v1.3a1.3,1.3,0,0,1-.1.6c-.1.1,0,.4-.1.6s-.2,1-.2,1.4.1.6-.2.8a1.9,1.9,0,0,1-.1.8c-.2.2-.1.4-.1.7a1.1,1.1,0,0,0,0,.8c0,.3-.2.5-.3.8s.1.5-.1.7-.1.1-.1.2v.5c0,.4.2.8-.1,1.2s.1.7-.3,1,0,.2,0,.4V148H122.4v73.6q-3.9.3-7.8.3a109.4,109.4,0,0,1-28.8-3.9V148.2c-.2-.2-.5-.1-.7-.1H55.8c-.2-1.5-.2-25.2-.1-33.8H85.5a.1.1,0,0,0,.1-.1h.1V83.9c.4-.5.1-1.1.2-1.6s-.2-1.3.2-1.8,0-.3,0-.5.1-.7.1-1,.1-.7.1-1.1.3-.7.2-1.1.2-.5.3-.8-.1-.5.1-.7.1-.1.1-.2-.1-.6.1-.8,0-.6.1-.8.2-.5.3-.7.3-.5.2-.8.1-.6.3-.8.1-.5.1-.7.3-.4.2-.7.3-.3.3-.6a.8.8,0,0,1,.2-.5,1.4,1.4,0,0,0,.2-.6c0-.2.3-.3.2-.6s.2-.3.2-.5.2-.3.2-.4.5-.7.5-1.1a3.7,3.7,0,0,1,.5-1.1l.6-1.1a.5.5,0,0,1,.3-.5c.2-.1.1-.3.2-.4a5.3,5.3,0,0,1,.6-1l.5-.9a2.4,2.4,0,0,1,.6-.8c.4-.4.5-.9.9-1.2s0-.3.1-.4.7-.5.8-1l.9-.8c.2-.2.2-.5.4-.7l.7-.7.6-.6.6-.6.6-.6c.3-.4.7-.4,1-.7a2,2,0,0,1,.8-.8l.6-.4a1.1,1.1,0,0,1,.5-.4c.2,0,.3-.3.5-.5s.5-.1.6-.3.5-.3.6-.5.5-.2.7-.3l.6-.4c.1-.2.4-.1.5-.3s.4-.3.6-.4.5-.3.8-.3.6-.3.9-.5l.8-.4c.1-.4.5-.1.8-.3a1.1,1.1,0,0,1,.6-.3c.2-.1.4-.4.8-.3h.1l.5-.2c.2-.2.4,0,.6-.2s.3-.1.5-.2l.8-.2c.1-.3.5-.1.7-.3s.5,0,.6-.2.4-.1.6-.1.5-.4.9-.2.4-.3.7-.3.4-.3.7-.2.4,0,.6,0,.5-.2.8-.2.5-.3.8-.2h.8c.2-.3.6-.2.9-.2h1l.4-.2h.8c.3.1.5-.3.9-.2h2c.3,0,.5-.3.9-.2H134c.3,0,.5-.1.7.2h2.8c.6.1,1.3-.2,2,.2h1.7c.4.1.8-.1,1,.2h1.6a.5.5,0,0,1,.7.2h1.3c.3,0,.5-.1.8.1s.6,0,.8.1.4.3.7.2h2c.5.4,1,.2,1.5.2s.4.4.8.3a.4.4,0,0,1,.6.2h1.1c.4,0,.7-.1.9.2h1c0,.1.1.2.3.2s-.1.5.1.7a.3.3,0,0,0,.1.2Z" fill="#9edae3"/><path d="M156.3,44.9c-.2,0-.3,0-.3-.2S156.3,44.8,156.3,44.9Z" fill="#cdebf1"/><path d="M156,73.8c0-.1.1-.2.3-.2S156.2,73.8,156,73.8Z" fill="#c0f0f4"/><path d="M122.5,148.1h.2c0,.1,0,.2-.1.2Z" fill="#ecffff"/></g></svg>