<svg id="instagram-icon" xmlns="http://www.w3.org/2000/svg" width="229" height="227" viewBox="0 0 229 227"><circle id="icon-bg" cx="115.6" cy="112.5" r="108.5" fill="#fff"/><path d="M49,146.3V79.4a7.3,7.3,0,0,0,.7-2.9A36.2,36.2,0,0,1,60.9,56.6a35.4,35.4,0,0,1,15.2-8.3c1.8-.5,3.6-.5,5.3-1.3H148c.2.3.4.3.7.3a37.8,37.8,0,0,1,8.8,2.2A36.4,36.4,0,0,1,175,63.9a37.5,37.5,0,0,1,5.7,20.6c-.1,18.5,0,37,0,55.5,0,1.8-.1,3.6-.2,5.4A35.9,35.9,0,0,1,169,168.9c-7,6.6-15.5,9.7-25.2,9.8H85.7a34.5,34.5,0,0,1-7.2-.7,35.9,35.9,0,0,1-19.9-11.2,36.8,36.8,0,0,1-8.3-15.1C49.8,149.9,49.8,148,49,146.3Zm63.8-87.7c-8.3.2-18.7-.3-29,.3s-15.7,5-20.2,12.9a26.3,26.3,0,0,0-3,12.6v35.1c.1,8.1-.3,16.3.2,24.4s5.2,15.8,13.1,20.2a26,26,0,0,0,12.6,3h39.9c6.5-.1,13,.2,19.4-.2,9.3-.7,16-5.3,20.5-13.4a25.9,25.9,0,0,0,2.7-12.2c.1-14.9.1-29.8,0-44.6,0-5,.3-10-.1-14.9-.7-9.1-5.2-15.7-13-20.2a26.3,26.3,0,0,0-12.6-3Z" fill="#9ed9e2"/><path d="M49,146.3c.8,1.7.8,3.6,1.3,5.4a36.8,36.8,0,0,0,8.3,15.1A35.9,35.9,0,0,0,78.5,178a34.5,34.5,0,0,0,7.2.7h58.1c9.7-.1,18.2-3.2,25.2-9.8a35.9,35.9,0,0,0,11.5-23.5c.1-1.8.2-3.6.2-5.4,0-18.5-.1-37,0-55.5A37.5,37.5,0,0,0,175,63.9a36.4,36.4,0,0,0-17.5-14.4,37.8,37.8,0,0,0-8.8-2.2c-.3,0-.5,0-.7-.3h32c.8,0,.9.2.9.9V178c.1,1-.3.9-1,.9H49Z" fill="#fefefe"/><path d="M81.4,47c-1.7.8-3.5.8-5.3,1.3a35.4,35.4,0,0,0-15.2,8.3A36.2,36.2,0,0,0,49.7,76.5a7.3,7.3,0,0,1-.7,2.9V48c0-.8.2-1,1-1Z" fill="#fefefe"/><path d="M112.8,58.6h30.5a26.3,26.3,0,0,1,12.6,3c7.8,4.5,12.3,11.1,13,20.2.4,4.9.1,9.9.1,14.9.1,14.8.1,29.7,0,44.6a25.9,25.9,0,0,1-2.7,12.2c-4.5,8.1-11.2,12.7-20.5,13.4-6.4.4-12.9.1-19.4.2H86.5a26,26,0,0,1-12.6-3C66,159.7,61.4,153,60.8,143.9s-.1-16.3-.2-24.4V84.4a26.3,26.3,0,0,1,3-12.6c4.5-7.9,11.1-12.4,20.2-12.9S104.5,58.8,112.8,58.6Zm2,20.3c-18.9.3-33.9,15.2-33.8,34a33.9,33.9,0,1,0,67.7-.1C148.7,93.9,133.7,79.1,114.8,78.9Zm35.4,7.2a8.5,8.5,0,1,0-8.6-8.5A8.6,8.6,0,0,0,150.2,86.1Z" fill="#fefefe"/><path d="M114.8,78.9c18.9.2,33.9,15,33.9,33.9a33.9,33.9,0,1,1-67.7.1C80.9,94.1,95.9,79.2,114.8,78.9Zm22.2,34a22.2,22.2,0,0,0-44.3-.2c-.2,12.2,10,22.3,22.1,22.4S137.2,125,137,112.9Z" fill="#9ed9e2"/><path d="M150.2,86.1a8.6,8.6,0,0,1-8.6-8.5,8.5,8.5,0,0,1,8.5-8.5,8.5,8.5,0,1,1,.1,17Z" fill="#9ed9e2"/><path d="M137,112.9c.2,12.1-10.1,22.2-22.2,22.2s-22.3-10.2-22.1-22.4a22.2,22.2,0,0,1,44.3.2Z" fill="#fefefe"/></svg>