<svg id="twitter-icon" xmlns="http://www.w3.org/2000/svg" width="229" height="227" viewBox="0 0 229 227"><circle id="icon-bg" cx="115.6" cy="112.5" r="108.5" fill="#fff"/><path d="M118.5,172.9H49.7c-1.4,0-1.7-.3-1.7-1.7V58.7c0-1.4.3-1.7,1.7-1.7H187.3c1.4,0,1.7.3,1.7,1.7V171.2c0,1.4-.3,1.7-1.7,1.7Zm54.6-97.6h0c2.4-2.2,5.1-4,7-6.8a29.5,29.5,0,0,0,4.3-8.3,70.6,70.6,0,0,1-15.5,6.2,3.9,3.9,0,0,1-4.1-1c-14-13.4-38.5-7.9-45.6,10.1a29.9,29.9,0,0,0-1.8,15.9c.3,1.5,0,1.7-1.4,1.4a49.5,49.5,0,0,0-5.4-.6,78.6,78.6,0,0,1-29.1-9.9A74.6,74.6,0,0,1,60.3,64.8c-1.3-1.7-1.9-1.3-2.7.4a28.6,28.6,0,0,0,7.8,34.3c.5.5,1.5.6,1.4,1.8a32.1,32.1,0,0,1-4.3-.7,48.3,48.3,0,0,1-5-1.6c-2.9-1.2-3-1.1-2.7,2.1a.9.9,0,0,0,.1.5c2.1,12.1,8.9,20.2,20.8,23.9.3.1.8.1.7.7a22.7,22.7,0,0,1-9.7.5c-1.6-.2-1.9.3-1.2,1.8a29,29,0,0,0,12.7,14.3c3.8,2.1,8.1,3,12.8,3.8a57.8,57.8,0,0,1-19.3,9.8c-7,2.1-14.1,2.3-21.3,2.2a40.2,40.2,0,0,0,8.3,4.7c17.3,8.1,35.3,9.6,53.8,5.4a75.3,75.3,0,0,0,40.9-24.4,84.4,84.4,0,0,0,17.4-31.4,75.8,75.8,0,0,0,3.3-24.6,3.2,3.2,0,0,1,1.6-3.4,54.2,54.2,0,0,0,8.2-7.7c1.4-1.6,3-3.1,3.6-5.3h.2v-.2l-.2.2a4.4,4.4,0,0,0-2.2.7C181.3,73.9,177.4,75.4,173.1,75.3Z" fill="#fefefe"/><path d="M187.5,71.9c-.6,2.2-2.2,3.7-3.6,5.3a54.2,54.2,0,0,1-8.2,7.7,3.2,3.2,0,0,0-1.6,3.4,75.8,75.8,0,0,1-3.3,24.6,84.4,84.4,0,0,1-17.4,31.4,75.3,75.3,0,0,1-40.9,24.4c-18.5,4.2-36.5,2.7-53.8-5.4a40.2,40.2,0,0,1-8.3-4.7c7.2.1,14.3-.1,21.3-2.2A57.8,57.8,0,0,0,91,146.6c-4.7-.8-9-1.7-12.8-3.8a29,29,0,0,1-12.7-14.3c-.7-1.5-.4-2,1.2-1.8a22.7,22.7,0,0,0,9.7-.5c.1-.6-.4-.6-.7-.7-11.9-3.7-18.7-11.8-20.8-23.9a.9.9,0,0,1-.1-.5c-.3-3.2-.2-3.3,2.7-2.1a48.3,48.3,0,0,0,5,1.6,32.1,32.1,0,0,0,4.3.7c.1-1.2-.9-1.3-1.4-1.8a28.6,28.6,0,0,1-7.8-34.3c.8-1.7,1.4-2.1,2.7-.4A74.6,74.6,0,0,0,81.5,82.3a78.6,78.6,0,0,0,29.1,9.9,49.5,49.5,0,0,1,5.4.6c1.4.3,1.7.1,1.4-1.4a29.9,29.9,0,0,1,1.8-15.9c7.1-18,31.6-23.5,45.6-10.1a3.9,3.9,0,0,0,4.1,1,70.6,70.6,0,0,0,15.5-6.2,29.5,29.5,0,0,1-4.3,8.3c-1.9,2.8-4.6,4.6-7,6.8h-.2l.2-.2c4.3.1,8.2-1.4,12.2-2.7a4.4,4.4,0,0,1,2.2-.7Z" fill="#9ed9e2"/><path d="M187.5,71.9l.2-.2v.2Z" fill="#9ed9e2"/><path d="M173.1,75.3l-.2.2h.2Z" fill="#fefefe"/></svg>